<?xml version="1.0" encoding="UTF-8" standalone="no"?>
<!-- Created with Inkscape (http://www.inkscape.org/) -->

<svg
   xmlns:dc="http://purl.org/dc/elements/1.1/"
   xmlns:cc="http://creativecommons.org/ns#"
   xmlns:rdf="http://www.w3.org/1999/02/22-rdf-syntax-ns#"
   xmlns:svg="http://www.w3.org/2000/svg"
   xmlns="http://www.w3.org/2000/svg"
   xmlns:inkscape="http://www.inkscape.org/namespaces/inkscape"
   version="1.1"
   width="472.41251"
   height="26.525"
   id="svg2"
   xml:space="preserve"><metadata
     id="metadata8"><rdf:RDF><cc:Work
         rdf:about=""><dc:format>image/svg+xml</dc:format><dc:type
           rdf:resource="http://purl.org/dc/dcmitype/StillImage" /></cc:Work></rdf:RDF></metadata><defs
     id="defs6" /><g
     transform="matrix(1.25,0,0,-1.25,0,26.525)"
     id="g10"><g
       transform="scale(0.1,0.1)"
       id="g12"><path
         d="m 3731.5,2.82812 47.8203,0 0,46.9805 -47.8203,0 0,-46.9805 z"
         inkscape:connector-curvature="0"
         id="path14"
         style="fill:#121722;fill-opacity:1;fill-rule:nonzero;stroke:none" /><path
         d="m 119.117,131.543 -66.8865,0 0,76.824 -52.2305,0 0,-204.49981 52.2305,0 0,81.80471 66.8865,0 0,-81.80471 52.235,0 0,204.49981 -52.235,0 0,-76.824"
         inkscape:connector-curvature="0"
         id="path16"
         style="fill:#121722;fill-opacity:1;fill-rule:nonzero;stroke:none" /><path
         d="M 327.137,66.0508 C 316.633,52.6016 302.816,45.875 285.68,45.875 c -16.953,0 -30.77,6.1719 -41.457,18.5156 -9.95,11.6094 -14.922,25.7032 -14.922,42.2814 0,15.66 4.789,29.199 14.371,40.621 10.5,12.715 24.316,19.066 41.457,19.066 17.312,0 31.32,-6.726 42.008,-20.171 9.023,-11.79 13.539,-25.239 13.539,-40.344 0,-14.9221 -4.516,-28.1878 -13.539,-39.7932 z M 284.852,212.234 c -25.797,0 -48.184,-7.554 -67.161,-22.66 -14.918,-11.605 -25.796,-25.699 -32.609,-42.281 -5.348,-13.086 -8.016,-27.633 -8.016,-43.66 0,-27.4533 9.856,-51.3088 29.575,-71.5744 20.82,-21.375 46.797,-32.05469375 77.933,-32.05469375 31.133,0 57.117,10.58589375 77.938,31.77729375 20.265,20.4493 30.402,45.2266 30.402,74.3398 0,29.106 -10.137,53.887 -30.402,74.332 -20.821,21.184 -46.707,31.781 -77.66,31.781"
         inkscape:connector-curvature="0"
         id="path18"
         style="fill:#121722;fill-opacity:1;fill-rule:nonzero;stroke:none" /><path
         d="m 506.969,73.7812 -0.559,0 -40.621,134.5858 -67.16,0 0,-204.49981 48.09,0 -1.657,153.10181 0.547,0.551 43.664,-153.65281 34.551,0 43.668,153.65281 0.555,-0.551 -1.664,-153.10181 48.09,0 0,204.49981 -67.434,0 -40.07,-134.5858"
         inkscape:connector-curvature="0"
         id="path20"
         style="fill:#121722;fill-opacity:1;fill-rule:nonzero;stroke:none" /><path
         d="m 625.91,3.86719 113.586,0 0,45.87891 -63.566,0 0,34.8164 61.629,0 0,45.8755 -61.629,0 0,32.058 63.566,0 0,45.871 -113.586,0 0,-204.49981"
         inkscape:connector-curvature="0"
         id="path22"
         style="fill:#121722;fill-opacity:1;fill-rule:nonzero;stroke:none" /><path
         d="m 796.656,3.35156 52.2305,0 0,204.492 -52.2305,0 0,-204.492 z"
         inkscape:connector-curvature="0"
         id="path24"
         style="fill:#121722;fill-opacity:1;fill-rule:nonzero;stroke:none" /><path
         d="m 951.895,121.316 c -19.348,8.657 -30.957,14.372 -34.829,17.133 -4.972,3.5 -7.457,8.196 -7.457,14.094 0,4.602 1.793,8.43 5.387,11.469 3.594,3.039 7.785,4.562 12.574,4.562 10.317,0 16.582,-6.633 18.793,-19.898 l 51.684,0 c -0.742,16.945 -5.254,30.394 -13.539,40.347 -12.903,15.473 -31.332,23.211 -55.278,23.211 -18.617,0 -34.828,-5.254 -48.644,-15.75 -15.293,-11.429 -22.938,-26.25 -22.938,-44.496 0,-16.578 6.54,-30.394 19.625,-41.449 6.997,-5.898 17.129,-11.6054 30.395,-17.1328 17.324,-7.1874 27.918,-12.1601 31.785,-14.9218 5.527,-3.6875 8.293,-8.7539 8.293,-15.1992 0,-4.9766 -1.844,-9.4922 -5.527,-13.5391 -3.688,-4.0586 -8.477,-6.082 -14.375,-6.082 -4.973,0 -9.305,1.6562 -12.989,4.9765 -5.523,4.9727 -8.293,12.6172 -8.293,22.9336 l -51.953,0 0,-6.6289 c 0,-16.7695 4.875,-30.8633 14.649,-42.2812 12.894,-15.10941 32.609,-22.66019375 59.14,-22.66019375 24.875,0 43.575,6.72265375 56.11,20.16799375 10.125,11.0547 15.195,25.2422 15.195,42.5625 0,12.7109 -3.226,23.3008 -9.672,31.7773 -7.371,9.7613 -20.086,18.6993 -38.136,26.8043"
         inkscape:connector-curvature="0"
         id="path26"
         style="fill:#121722;fill-opacity:1;fill-rule:nonzero;stroke:none" /><path
         d="m 2826.79,130.254 -66.88,0 0,76.824 -52.23,0 0,-204.49988 52.23,0 0,81.80468 66.88,0 0,-81.80468 52.23,0 0,204.49988 -52.23,0 0,-76.824"
         inkscape:connector-curvature="0"
         id="path28"
         style="fill:#121722;fill-opacity:1;fill-rule:nonzero;stroke:none" /><path
         d="m 3239.46,104.527 -18.51,0 0,56.926 19.06,0 c 22.48,0 33.72,-9.215 33.72,-27.633 0,-19.531 -11.42,-29.293 -34.27,-29.293 z m 73.52,-6.359 c 7.19,11.426 10.78,24.32 10.78,38.691 0,24.133 -8.39,42.739 -25.15,55.821 -6.82,5.34 -14.47,9.023 -22.94,11.054 -9.4,2.395 -22.76,3.59 -40.07,3.59 l -64.68,0 0,-204.49588 50.03,0 0,66.05078 47.5,-66.05078 60,0 -55.55,69.64068 c 17.5,2.9453 30.87,11.5156 40.08,25.6992"
         inkscape:connector-curvature="0"
         id="path30"
         style="fill:#121722;fill-opacity:1;fill-rule:nonzero;stroke:none" /><path
         d="m 3334.17,161.457 40.35,0 0,-158.62888 52.23,0 0,158.62888 40.08,0 0,45.871 -132.66,0 0,-45.871"
         inkscape:connector-curvature="0"
         id="path32"
         style="fill:#121722;fill-opacity:1;fill-rule:nonzero;stroke:none" /><path
         d="m 3524,2.82812 52.2188,0 0,204.5 -52.2188,0 0,-204.5 z"
         inkscape:connector-curvature="0"
         id="path34"
         style="fill:#121722;fill-opacity:1;fill-rule:nonzero;stroke:none" /><path
         d="m 3678.21,121.316 c -19.35,8.657 -30.95,14.372 -34.83,17.133 -4.97,3.5 -7.45,8.196 -7.45,14.094 0,4.602 1.79,8.43 5.38,11.469 3.6,3.039 7.79,4.562 12.58,4.562 10.31,0 16.58,-6.633 18.79,-19.898 l 51.68,0 c -0.74,16.945 -5.25,30.394 -13.54,40.347 -12.9,15.473 -31.33,23.211 -55.27,23.211 -18.62,0 -34.83,-5.254 -48.65,-15.75 -15.29,-11.429 -22.93,-26.25 -22.93,-44.496 0,-16.578 6.53,-30.394 19.62,-41.449 7,-5.898 17.13,-11.6054 30.4,-17.1328 17.32,-7.1874 27.91,-12.1601 31.79,-14.9218 5.52,-3.6875 8.28,-8.7539 8.28,-15.1992 0,-4.9766 -1.84,-9.4883 -5.52,-13.5391 -3.69,-4.0586 -8.48,-6.082 -14.37,-6.082 -4.98,0 -9.31,1.6562 -13,4.9765 -5.52,4.9727 -8.28,12.6172 -8.28,22.9336 l -51.96,0 0,-6.6289 c 0,-16.7695 4.88,-30.8633 14.64,-42.2812 12.9,-15.10941 32.62,-22.66019375 59.15,-22.66019375 24.87,0 43.57,6.72265375 56.1,20.17579375 10.13,11.0469 15.2,25.2344 15.2,42.5547 0,12.7109 -3.23,23.3008 -9.67,31.7773 -7.37,9.7653 -20.09,18.6993 -38.14,26.8043"
         inkscape:connector-curvature="0"
         id="path36"
         style="fill:#121722;fill-opacity:1;fill-rule:nonzero;stroke:none" /><path
         d="m 3108.98,78.8008 -48.15,0.5586 48.05,60.6486 0.1,-61.2072 z m -122.81,-30.3477 -45.85,0 0,34.8203 61.63,0 0,45.8716 -61.63,0 0,32.058 63.57,0 0,45.875 -113.59,0 0,-204.49597 113.59,0 0,0.01563 3.74,0 27.4,35.52344 73.02,0 -0.07,-35.52344 51.51,-0.01563 0,204.49597 -52.96,-0.016 -120.36,-158.6089"
         inkscape:connector-curvature="0"
         id="path38"
         style="fill:#121722;fill-opacity:1;fill-rule:nonzero;stroke:none" /><path
         d="m 1428.85,131.543 -66.89,0 0,76.824 -95.87,0 -27.92,-133.4725 -0.56,0 -29.57,133.4725 -40.07,0 -30.12,-132.9217 -0.56,0 -27.36,132.9217 -53.06,0 52.79,-204.49981 47.25,0 30.68,132.37881 0.55,0 30.68,-132.37881 45.88,0 45.03,170.00781 0,-170.00781 52.23,0 0,81.80471 66.89,0 0,-81.80471 52.23,0 0,204.49981 -52.23,0 0,-76.824"
         inkscape:connector-curvature="0"
         id="path40"
         style="fill:#121722;fill-opacity:1;fill-rule:nonzero;stroke:none" /><path
         d="m 1492.51,3.86719 113.6,0 0,45.87891 -63.58,0 0,34.8164 61.64,0 0,45.8755 -61.64,0 0,32.058 63.58,0 0,45.871 -113.6,0 0,-204.49981"
         inkscape:connector-curvature="0"
         id="path42"
         style="fill:#121722;fill-opacity:1;fill-rule:nonzero;stroke:none" /><path
         d="m 1686.07,105.57 -18.51,0 0,56.926 19.07,0 c 22.47,0 33.72,-9.215 33.72,-27.637 0,-19.531 -11.43,-29.289 -34.28,-29.289 z m 73.52,-6.3591 c 7.19,11.4221 10.78,24.3201 10.78,38.6871 0,24.137 -8.39,42.743 -25.15,55.821 -6.82,5.34 -14.47,9.023 -22.94,11.054 -9.39,2.395 -22.76,3.59 -40.07,3.59 l -64.67,0 0,-204.49191 50.02,0 0,66.04691 47.51,-66.04691 60,0 -55.56,69.63671 c 17.51,2.9492 30.87,11.5156 40.08,25.7031"
         inkscape:connector-curvature="0"
         id="path44"
         style="fill:#121722;fill-opacity:1;fill-rule:nonzero;stroke:none" /><path
         d="m 1780.79,3.86719 113.58,0 0,45.87891 -63.56,0 0,34.8164 61.63,0 0,45.8755 -61.63,0 0,32.058 63.56,0 0,45.871 -113.58,0 0,-204.49981"
         inkscape:connector-curvature="0"
         id="path46"
         style="fill:#121722;fill-opacity:1;fill-rule:nonzero;stroke:none" /><path
         d="m 2069.27,208.367 -30.81,-77.269 -30.27,77.269 -56.65,0 61.07,-130.16 0,-74.33981 52.24,0 0,74.33981 60.53,130.16 -56.11,0"
         inkscape:connector-curvature="0"
         id="path48"
         style="fill:#121722;fill-opacity:1;fill-rule:nonzero;stroke:none" /><path
         d="m 2252.03,66.0508 c -10.5,-13.4492 -24.32,-20.1758 -41.45,-20.1758 -16.96,0 -30.77,6.1719 -41.46,18.5156 -9.95,11.6094 -14.92,25.7032 -14.92,42.2814 0,15.66 4.79,29.199 14.37,40.621 10.5,12.715 24.32,19.066 41.45,19.066 17.32,0 31.33,-6.726 42.01,-20.171 9.03,-11.79 13.54,-25.239 13.54,-40.344 0,-14.9221 -4.51,-28.1878 -13.54,-39.7932 z m -42.28,146.1832 c -25.8,0 -48.19,-7.554 -67.16,-22.66 -14.92,-11.605 -25.8,-25.699 -32.61,-42.281 -5.35,-13.086 -8.02,-27.633 -8.02,-43.66 0,-27.4533 9.86,-51.3088 29.58,-71.5744 20.82,-21.375 46.79,-32.05469375 77.93,-32.05469375 31.13,0 57.12,10.58589375 77.94,31.77729375 20.27,20.4493 30.4,45.2266 30.4,74.3398 0,29.106 -10.13,53.887 -30.4,74.332 -20.82,21.184 -46.71,31.781 -77.66,31.781"
         inkscape:connector-curvature="0"
         id="path50"
         style="fill:#121722;fill-opacity:1;fill-rule:nonzero;stroke:none" /><path
         d="m 2428.27,84.8438 c 0,-11.9844 -1.1,-20.5469 -3.32,-25.7032 -3.69,-8.8437 -11.24,-13.2656 -22.66,-13.2656 -17.68,0 -26.53,12.9883 -26.53,38.9688 l 0,123.5232 -52.23,0 0,-123.5232 c 0,-15.668 1.29,-27.6368 3.86,-35.9297 2.77,-9.0274 8.3,-18.0586 16.59,-27.0821 C 2357.24,7.27734 2376.87,0 2402.84,0 c 23.77,0 42.84,7.36719 57.21,22.1094 7,7.1875 12.07,15.0156 15.2,23.4922 3.5,9.9492 5.25,23.0234 5.25,39.2422 l 0,123.5232 -52.23,0 0,-123.5232"
         inkscape:connector-curvature="0"
         id="path52"
         style="fill:#121722;fill-opacity:1;fill-rule:nonzero;stroke:none" /><path
         d="m 2561.52,105.566 -18.52,0 0,56.926 19.07,0 c 22.48,0 33.72,-9.211 33.72,-27.633 0,-19.531 -11.43,-29.293 -34.27,-29.293 z m 73.51,-6.3551 c 7.19,11.4221 10.78,24.3161 10.78,38.6871 0,24.133 -8.39,42.739 -25.15,55.821 -6.82,5.34 -14.46,9.023 -22.94,11.054 -9.4,2.395 -22.75,3.59 -40.07,3.59 l -65.71,0 0,-204.49191 51.06,0 0,66.04691 47.5,-66.04691 60.01,0 -55.55,69.63671 c 17.5,2.9453 30.85,11.5156 40.07,25.7031"
         inkscape:connector-curvature="0"
         id="path54"
         style="fill:#121722;fill-opacity:1;fill-rule:nonzero;stroke:none" /></g></g></svg>