<?xml version="1.0" encoding="UTF-8" standalone="no"?>
<!-- Created with Inkscape (http://www.inkscape.org/) -->

<svg
   xmlns:dc="http://purl.org/dc/elements/1.1/"
   xmlns:cc="http://creativecommons.org/ns#"
   xmlns:rdf="http://www.w3.org/1999/02/22-rdf-syntax-ns#"
   xmlns:svg="http://www.w3.org/2000/svg"
   xmlns="http://www.w3.org/2000/svg"
   xmlns:inkscape="http://www.inkscape.org/namespaces/inkscape"
   version="1.1"
   width="88.587502"
   height="72.487503"
   id="svg2"
   xml:space="preserve"><metadata
     id="metadata8"><rdf:RDF><cc:Work
         rdf:about=""><dc:format>image/svg+xml</dc:format><dc:type
           rdf:resource="http://purl.org/dc/dcmitype/StillImage" /></cc:Work></rdf:RDF></metadata><defs
     id="defs6"><clipPath
       id="clipPath18"><path
         d="M 0,579.93 0,0 l 708.66,0 0,579.93 -708.66,0 z"
         inkscape:connector-curvature="0"
         id="path20" /></clipPath></defs><g
     transform="matrix(1.25,0,0,-1.25,0,72.4875)"
     id="g10"><g
       transform="scale(0.1,0.1)"
       id="g12"><g
         id="g14"><g
           clip-path="url(#clipPath18)"
           id="g16"><path
             d="m 73.6445,533.469 4.1563,-47.5 L 36.4531,482.352 32.293,529.848 0,527.023 11.0586,400.59 l 32.2969,2.824 -4.4219,50.574 41.3476,3.621 4.4258,-50.578 32.297,2.828 -11.066,126.434 -32.2935,-2.824"
             inkscape:connector-curvature="0"
             id="path22"
             style="fill:#121722;fill-opacity:1;fill-rule:nonzero;stroke:none" /><path
             d="m 117.734,499.277 c 3.317,10.621 9.278,19.922 17.875,27.907 10.914,10.363 24.348,16.246 40.297,17.64 19.137,1.676 35.715,-3.476 49.735,-15.449 13.636,-11.547 21.242,-26.32 22.82,-44.316 1.57,-17.997 -3.356,-33.864 -14.777,-47.602 -11.731,-14.23 -27.219,-22.184 -46.469,-23.867 -19.254,-1.684 -35.895,3.515 -49.918,15.605 -13.289,11.461 -20.672,25.68 -22.156,42.653 -0.868,9.91 -0.004,19.05 2.593,27.429 m 29.539,-22.722 c 0.895,-10.254 4.731,-18.7 11.512,-25.336 7.274,-7.055 16.149,-10.121 26.633,-9.203 10.594,0.925 18.773,5.828 24.539,14.711 4.953,7.664 7.027,16.109 6.223,25.339 -0.821,9.336 -4.336,17.407 -10.559,24.211 -7.336,7.735 -16.355,11.137 -27.062,10.2 -10.594,-0.926 -18.793,-5.606 -24.602,-14.032 -5.305,-7.582 -7.531,-16.211 -6.684,-25.89"
             inkscape:connector-curvature="0"
             id="path24"
             style="fill:#121722;fill-opacity:1;fill-rule:nonzero;stroke:none" /><path
             d="m 257.523,422.152 -11.058,126.434 41.519,3.633 32.399,-81.008 0.34,0.027 17.5,85.375 41.687,3.649 11.067,-126.434 -29.735,-2.601 -7.254,94.742 -0.375,0.316 -18.683,-97.359 -21.36,-1.867 -35.308,92.632 -0.313,-0.371 9.305,-94.566 -29.731,-2.602"
             inkscape:connector-curvature="0"
             id="path26"
             style="fill:#121722;fill-opacity:1;fill-rule:nonzero;stroke:none" /><path
             d="m 398.043,434.445 -11.059,126.434 70.227,6.144 2.48,-28.359 -39.3,-3.441 1.734,-19.817 38.105,3.332 2.481,-28.359 -38.106,-3.336 1.883,-21.527 39.301,3.437 2.481,-28.359 -70.227,-6.149"
             inkscape:connector-curvature="0"
             id="path28"
             style="fill:#121722;fill-opacity:1;fill-rule:nonzero;stroke:none" /><path
             d="m 503.645,443.359 -11.063,126.438 32.297,2.824 11.059,-126.433 -32.293,-2.829"
             inkscape:connector-curvature="0"
             id="path30"
             style="fill:#121722;fill-opacity:1;fill-rule:nonzero;stroke:none" /><path
             d="m 620.293,544.105 -31.953,-2.796 c -2.082,8.082 -6.317,11.843 -12.695,11.285 -2.965,-0.258 -5.469,-1.426 -7.528,-3.496 -2.058,-2.075 -2.961,-4.536 -2.711,-7.383 0.317,-3.649 2.11,-6.418 5.375,-8.313 2.543,-1.5 10.028,-4.402 22.457,-8.711 11.602,-4.035 19.946,-8.871 25.032,-14.507 4.445,-4.891 7.007,-11.266 7.699,-19.125 0.937,-10.707 -1.434,-19.75 -7.098,-27.133 -7.019,-8.996 -18.219,-14.164 -33.594,-15.508 -16.406,-1.438 -29.007,2.168 -37.793,10.812 -6.66,6.532 -10.437,14.981 -11.343,25.348 l -0.36,4.102 32.125,2.808 c 0.555,-6.379 2.68,-10.957 6.367,-13.734 2.454,-1.852 5.223,-2.641 8.301,-2.371 3.641,0.32 6.496,1.832 8.555,4.535 2.059,2.703 2.957,5.598 2.683,8.672 -0.347,3.984 -2.328,6.969 -5.945,8.949 -2.543,1.496 -9.363,4 -20.461,7.508 -8.5,2.699 -15.07,5.68 -19.718,8.949 -8.692,6.125 -13.481,14.313 -14.379,24.566 -0.985,11.274 2.941,20.856 11.781,28.75 7.972,7.235 17.711,11.364 29.219,12.368 14.804,1.297 26.621,-2.492 35.429,-11.364 5.664,-5.703 9.184,-13.773 10.555,-24.211"
             inkscape:connector-curvature="0"
             id="path32"
             style="fill:#121722;fill-opacity:1;fill-rule:nonzero;stroke:none" /><path
             d="M 108.691,132.875 112.852,85.3789 71.4961,81.7578 67.3398,129.258 35.0469,126.434 46.1094,0 78.4023,2.82422 73.9766,53.3984 115.332,57.0195 119.754,6.44141 152.051,9.26953 140.988,135.703 108.691,132.875"
             inkscape:connector-curvature="0"
             id="path34"
             style="fill:#121722;fill-opacity:1;fill-rule:nonzero;stroke:none" /><path
             d="m 332.512,25.2109 -11.067,126.4341 39.985,3.496 c 10.707,0.937 19.035,0.921 24.976,-0.051 5.344,-0.797 10.274,-2.66 14.778,-5.594 11.074,-7.184 17.261,-18.23 18.57,-33.156 0.777,-8.879 -0.746,-17.0509 -4.57,-24.5002 -4.934,-9.2734 -12.731,-15.289 -23.391,-18.0586 l 38.113,-40.0507 -37.097,-3.2461 -32.946,38.2695 3.575,-40.8398 -30.926,-2.7032 z m 22.347,100.7771 3.079,-35.195 11.445,1 c 14.125,1.2343 20.664,7.8906 19.605,19.965 -0.996,11.387 -8.445,16.476 -22.34,15.262 l -11.789,-1.032"
             inkscape:connector-curvature="0"
             id="path36"
             style="fill:#121722;fill-opacity:1;fill-rule:nonzero;stroke:none" /><path
             d="m 458.387,36.2227 -8.578,98.0743 -24.946,-2.184 -2.484,28.36 82.019,7.175 2.481,-28.359 -24.774,-2.168 8.579,-98.0702 -32.297,-2.8281"
             inkscape:connector-curvature="0"
             id="path38"
             style="fill:#121722;fill-opacity:1;fill-rule:nonzero;stroke:none" /><path
             d="m 550.805,44.3086 -11.063,126.4334 32.297,2.824 11.059,-126.4332 -32.293,-2.8242"
             inkscape:connector-curvature="0"
             id="path40"
             style="fill:#121722;fill-opacity:1;fill-rule:nonzero;stroke:none" /><path
             d="m 666.797,145.32 -31.953,-2.797 c -2.082,8.082 -6.317,11.844 -12.696,11.286 -2.964,-0.258 -5.468,-1.426 -7.527,-3.5 -2.059,-2.071 -2.961,-4.536 -2.711,-7.379 0.317,-3.649 2.11,-6.422 5.375,-8.313 2.543,-1.5 10.027,-4.402 22.457,-8.711 11.602,-4.035 19.946,-8.871 25.028,-14.508 4.449,-4.89 7.015,-11.269 7.703,-19.1246 0.937,-10.7109 -1.43,-19.7539 -7.098,-27.1328 -7.02,-8.9961 -18.219,-14.164 -33.594,-15.5078 -16.406,-1.4375 -29.008,2.168 -37.793,10.8086 -6.66,6.5352 -10.437,14.9844 -11.343,25.3516 l -0.36,4.0976 32.125,2.8125 c 0.559,-6.3828 2.68,-10.957 6.367,-13.7343 2.453,-1.8516 5.223,-2.6407 8.301,-2.375 3.641,0.3203 6.496,1.8359 8.555,4.539 2.058,2.7031 2.957,5.5977 2.683,8.6719 -0.347,3.9844 -2.328,6.9648 -5.945,8.9492 -2.543,1.4961 -9.363,4.0001 -20.457,7.5041 -8.504,2.703 -15.074,5.683 -19.723,8.953 -8.691,6.125 -13.48,14.312 -14.379,24.562 -0.984,11.278 2.942,20.86 11.778,28.75 7.976,7.239 17.715,11.364 29.222,12.372 14.805,1.293 26.622,-2.493 35.43,-11.364 5.664,-5.703 9.184,-13.773 10.555,-24.211"
             inkscape:connector-curvature="0"
             id="path42"
             style="fill:#121722;fill-opacity:1;fill-rule:nonzero;stroke:none" /><path
             d="m 676.559,84.5781 2.543,-29.0469 29.558,2.5899 -2.539,29.043 -29.562,-2.586"
             inkscape:connector-curvature="0"
             id="path44"
             style="fill:#121722;fill-opacity:1;fill-rule:nonzero;stroke:none" /><path
             d="m 281.648,148 -65.836,-104.5742 -28.347,-2.4805 -1.883,21.5274 38.106,3.3359 -2.481,28.3633 -38.105,-3.336 -1.735,19.8201 39.301,3.438 -2.48,28.363 -70.231,-6.145 11.063,-126.43309 70.226,6.14449 0,0.0078 2.316,0.2032 15.016,23.4453 45.152,3.9492 1.875,-21.9687 31.848,2.7773 L 314.391,150.875 281.648,148 z m -21.347,-81.4297 26.426,40.0977 3.375,-37.8399 -29.801,-2.2578"
             inkscape:connector-curvature="0"
             id="path46"
             style="fill:#121722;fill-opacity:1;fill-rule:nonzero;stroke:none" /><path
             d="m 241.664,413.641 4.156,-47.496 -41.351,-3.622 -4.157,47.5 -26.648,-2.332 -5.648,-0.492 -26.989,-2.359 -10.035,-84.035 -0.34,-0.032 -25.504,80.926 -24.7769,-2.168 -11.4375,-83.808 -0.3398,-0.035 -24.1055,80.703 -32.8086,-2.871 43.6992,-123.579 29.2188,2.555 11.8085,83.5 0.3399,0.031 26.1249,-80.179 28.367,2.48 18.645,107.547 9.195,-105.109 32.297,2.824 -4.426,50.574 41.352,3.617 4.426,-50.57 32.296,2.824 -11.062,126.434 -32.297,-2.828"
             inkscape:connector-curvature="0"
             id="path48"
             style="fill:#121722;fill-opacity:1;fill-rule:nonzero;stroke:none" /><path
             d="m 292.09,290.652 -11.063,126.434 70.231,6.144 2.48,-28.363 -39.3,-3.437 1.734,-19.821 38.101,3.336 2.485,-28.363 -38.106,-3.332 1.883,-21.531 39.301,3.441 2.484,-28.363 -70.23,-6.145"
             inkscape:connector-curvature="0"
             id="path50"
             style="fill:#121722;fill-opacity:1;fill-rule:nonzero;stroke:none" /><path
             d="m 369.387,297.414 -11.059,126.434 39.981,3.5 c 10.707,0.937 19.031,0.914 24.972,-0.055 5.348,-0.793 10.278,-2.66 14.781,-5.594 11.071,-7.179 17.262,-18.23 18.567,-33.152 0.781,-8.883 -0.742,-17.055 -4.57,-24.504 -4.93,-9.27 -12.723,-15.289 -23.387,-18.055 l 38.113,-40.05 -37.097,-3.25 -32.942,38.269 3.57,-40.836 -30.929,-2.707 z m 22.347,100.777 3.082,-35.195 11.45,1 c 14.121,1.238 20.656,7.891 19.601,19.969 -0.996,11.387 -8.445,16.473 -22.344,15.258 l -11.789,-1.032"
             inkscape:connector-curvature="0"
             id="path52"
             style="fill:#121722;fill-opacity:1;fill-rule:nonzero;stroke:none" /><path
             d="m 470.32,306.246 -11.062,126.434 70.23,6.144 2.481,-28.363 -39.301,-3.438 1.734,-19.82 38.102,3.336 2.48,-28.363 -38.101,-3.336 1.883,-21.528 39.3,3.442 2.481,-28.363 -70.227,-6.145"
             inkscape:connector-curvature="0"
             id="path54"
             style="fill:#121722;fill-opacity:1;fill-rule:nonzero;stroke:none" /><path
             d="m 72.1875,136.863 -4.0234,45.961 -44.8008,77.168 35.0273,3.067 22.8906,-46.133 14.8711,49.437 34.6877,3.035 -30.379,-83.75 4.019,-45.957 -32.2925,-2.828"
             inkscape:connector-curvature="0"
             id="path56"
             style="fill:#121722;fill-opacity:1;fill-rule:nonzero;stroke:none" /><path
             d="m 124.625,230.805 c 3.316,10.621 9.277,19.922 17.875,27.906 10.914,10.363 24.348,16.246 40.297,17.641 19.137,1.675 35.715,-3.477 49.734,-15.446 13.637,-11.551 21.242,-26.32 22.821,-44.316 1.57,-18 -3.356,-33.867 -14.778,-47.606 -11.73,-14.226 -27.219,-22.179 -46.469,-23.867 -19.253,-1.683 -35.89,3.516 -49.917,15.61 -13.29,11.457 -20.672,25.675 -22.157,42.648 -0.867,9.91 -0.004,19.051 2.594,27.43 m 29.539,-22.723 c 0.895,-10.254 4.731,-18.699 11.512,-25.336 7.273,-7.051 16.148,-10.121 26.633,-9.203 10.593,0.926 18.773,5.832 24.539,14.715 4.953,7.664 7.027,16.109 6.222,25.336 -0.816,9.34 -4.34,17.41 -10.558,24.215 -7.332,7.73 -16.356,11.132 -27.063,10.195 -10.594,-0.926 -18.793,-5.602 -24.601,-14.031 -5.305,-7.578 -7.532,-16.211 -6.684,-25.891"
             inkscape:connector-curvature="0"
             id="path58"
             style="fill:#121722;fill-opacity:1;fill-rule:nonzero;stroke:none" /><path
             d="m 253.352,280.113 32.293,2.828 6.683,-76.375 c 1.406,-16.062 7.578,-23.613 18.512,-22.656 7.062,0.617 11.496,3.762 13.293,9.43 1.09,3.305 1.312,8.664 0.664,16.07 l -6.684,76.371 32.297,2.824 6.68,-76.371 c 0.879,-10.023 0.5,-18.207 -1.121,-24.546 -1.485,-5.411 -4.192,-10.524 -8.133,-15.344 -8.086,-9.891 -19.477,-15.477 -34.172,-16.762 -16.062,-1.406 -28.59,2.027 -37.578,10.313 -5.613,5.128 -9.52,10.414 -11.715,15.847 -2.047,4.985 -3.488,12.317 -4.34,22 l -6.679,76.371"
             inkscape:connector-curvature="0"
             id="path60"
             style="fill:#121722;fill-opacity:1;fill-rule:nonzero;stroke:none" /><path
             d="m 368.539,162.793 -11.062,126.434 40.628,3.55 c 10.704,0.942 19.032,0.918 24.969,-0.05 5.352,-0.797 10.274,-2.661 14.781,-5.594 11.075,-7.184 17.262,-18.235 18.571,-33.153 0.777,-8.886 -0.746,-17.054 -4.574,-24.503 -4.926,-9.27 -12.723,-15.289 -23.387,-18.055 l 38.113,-40.055 -37.098,-3.246 -32.945,38.27 3.574,-40.836 -31.57,-2.762 z m 22.992,100.832 3.074,-35.195 11.45,1 c 14.125,1.238 20.664,7.89 19.605,19.965 -0.996,11.386 -8.445,16.476 -22.344,15.261 l -11.785,-1.031"
             inkscape:connector-curvature="0"
             id="path62"
             style="fill:#121722;fill-opacity:1;fill-rule:nonzero;stroke:none" /></g></g></g></g></svg>